<?xml version="1.0" encoding="UTF-8"?>
<svg id="Layer_1" data-name="Layer 1" xmlns="http://www.w3.org/2000/svg" viewBox="0 0 504 504">
  <defs>
    <style>
      .cls-1 {
        fill: #fff;
      }
    </style>
  </defs>
  <path class="cls-1" d="M504,252c0,7.57-.34,15.07-.99,22.46-1.36,15.42-4.11,30.43-8.13,44.93-4.32,15.64-10.13,30.67-17.24,44.93-5.67,11.38-12.19,22.28-19.46,32.59-2.95,4.21-6.05,8.32-9.25,12.33-10.88,13.61-23.14,26.06-36.57,37.15-3.24,2.68-6.54,5.27-9.92,7.78-11.28,8.42-23.28,15.9-35.9,22.35V27.47c12.62,6.45,24.62,13.93,35.9,22.35,3.37,2.51,6.68,5.1,9.92,7.78,13.43,11.09,25.69,23.54,36.57,37.15,3.2,4.01,6.3,8.12,9.25,12.33,7.27,10.32,13.79,21.22,19.46,32.59,7.11,14.26,12.92,29.29,17.24,44.93h-47.03c-5.48-15.94-12.86-31.01-21.86-44.93-4.2-6.49-8.75-12.73-13.63-18.69V383.01c4.88-5.96,9.43-12.2,13.63-18.69,9.01-13.91,16.38-28.99,21.86-44.93,4.93-14.33,8.34-29.37,10.01-44.93h-28.01l11.91-44.93h61.25c.65,7.39,.99,14.89,.99,22.46Z"/>
  <path class="cls-1" d="M137.46,27.47v52c-7.04,4.68-13.79,9.78-20.19,15.28-9.29,7.97-17.88,16.75-25.63,26.23-4.88,5.96-9.43,12.2-13.62,18.69-9.01,13.91-16.38,28.99-21.86,44.93-4.93,14.33-8.34,29.37-10.01,44.93h-.32v3.2c.1-1.07,.2-2.14,.32-3.2h91.32v44.93H46.14c-.12-1.06-.22-2.13-.32-3.2v3.2h.32c1.68,15.56,5.08,30.6,10.01,44.93,5.48,15.94,12.86,31.01,21.86,44.93,4.2,6.49,8.75,12.73,13.62,18.69,7.75,9.48,16.34,18.27,25.63,26.23,6.4,5.5,13.15,10.6,20.19,15.28v52c-12.62-6.45-24.62-13.93-35.9-22.35-3.37-2.51-6.68-5.1-9.92-7.78-13.43-11.09-25.69-23.54-36.57-37.15-3.2-4.01-6.29-8.12-9.25-12.33-7.27-10.32-13.79-21.22-19.46-32.59-7.11-14.26-12.92-29.29-17.24-44.93-4.02-14.5-6.77-29.51-8.13-44.93-.65-7.39-.99-14.89-.99-22.46s.34-15.07,.99-22.46c1.36-15.42,4.11-30.43,8.13-44.93,4.32-15.64,10.13-30.67,17.24-44.93,5.67-11.38,12.19-22.28,19.46-32.59,2.95-4.21,6.05-8.32,9.25-12.33,10.88-13.61,23.14-26.06,36.57-37.15,3.24-2.68,6.54-5.27,9.92-7.78,11.28-8.42,23.28-15.9,35.9-22.35Z"/>
  <path class="cls-1" d="M320.72,9.48V184.61h-45.82V49.83h-45.82V229.54h91.64V494.52c-6.26,1.77-12.63,3.3-19.08,4.59-8.76,1.76-17.68,3.05-26.74,3.87-7.54,.68-15.19,1.02-22.91,1.02s-15.37-.35-22.91-1.02c-9.05-.82-17.98-2.11-26.73-3.87-6.46-1.29-12.82-2.82-19.08-4.59v-175.13h45.81v134.78h45.82v-179.71h-91.63V9.48c6.26-1.77,12.62-3.3,19.08-4.59,8.76-1.76,17.68-3.05,26.73-3.87,7.54-.68,15.19-1.02,22.91-1.02s15.37,.35,22.91,1.02c9.06,.82,17.98,2.11,26.74,3.87,6.45,1.29,12.82,2.82,19.08,4.59Z"/>
</svg>