<?xml version="1.0" encoding="UTF-8"?>
<svg id="Layer_2" data-name="Layer 2" xmlns="http://www.w3.org/2000/svg" viewBox="0 0 608.71 608.71">
  <defs>
    <style>
      .cls-1 {
        fill: #282828;
      }

      .cls-2 {
        fill: none;
      }
    </style>
  </defs>
  <path class="cls-2" d="M131.14,329.11h.27c-.1-.94-.19-1.88-.27-2.83v2.83Z"/>
  <polygon class="cls-2" points="347.45 583.4 350.55 601.24 353.03 600.73 349.93 582.88 347.45 583.4"/>
  <path class="cls-2" d="M131.14,292.24c.08-.95,.17-1.89,.27-2.83h-.27v2.83Z"/>
  <polygon class="cls-2" points="298.97 598.85 301.5 598.79 301.53 587.98 299 588.03 298.97 598.85"/>
  <polygon class="cls-2" points="213.93 27.72 207.44 29.95 206.03 33.13 214.71 59.93 217.62 61.61 224.24 59.34 225.56 56.2 216.87 29.4 213.93 27.72"/>
  <polygon class="cls-2" points="125.05 120.6 130.26 115.83 130.27 112.41 112.07 91.28 108.73 90.94 103.61 95.62 103.52 99.11 121.72 120.23 125.05 120.6"/>
  <polygon class="cls-2" points="30.48 227.73 42.35 235.48 47.12 238.42 50.01 229.53 44.48 228.92 30.48 227.73"/>
  <polygon class="cls-2" points="462.47 69.47 467.56 61.32 466.96 57.88 459.5 52.94 451.73 65.38 459.18 70.33 462.47 69.47"/>
  <polygon class="cls-2" points="191.73 585 194.09 585.93 200.66 569.1 198.3 568.17 191.73 585"/>
  <polygon class="cls-2" points="452.32 539.1 458.02 547.65 460.09 546.15 454.39 537.6 452.32 539.1"/>
  <path class="cls-1" d="M516.38,309.26c0-6.69-.28-13.32-.83-19.85h-51.49l-10.01,39.7h23.55c-1.41,13.75-4.27,27.04-8.42,39.7-4.61,14.09-10.81,27.41-18.38,39.7-3.53,5.74-7.36,11.25-11.46,16.51V193.5c4.1,5.26,7.93,10.78,11.46,16.51,7.57,12.3,13.78,25.61,18.38,39.7h39.54c-3.63-13.82-8.52-27.1-14.49-39.7-4.77-10.05-10.25-19.68-16.36-28.8-2.48-3.72-5.08-7.35-7.77-10.89-9.15-12.03-19.46-23.03-30.75-32.83-2.72-2.37-5.5-4.66-8.34-6.87-9.48-7.44-19.58-14.05-30.19-19.75V507.66c10.61-5.7,20.7-12.31,30.19-19.75,2.84-2.22,5.62-4.51,8.34-6.87,11.29-9.8,21.6-20.8,30.75-32.83,2.69-3.55,5.29-7.17,7.77-10.89,6.11-9.12,11.59-18.75,16.36-28.8,5.98-12.6,10.86-25.88,14.49-39.7,3.38-12.81,5.7-26.08,6.84-39.7,.55-6.53,.83-13.16,.83-19.85Z"/>
  <path class="cls-1" d="M169.66,137.49c-11.29,9.8-21.6,20.8-30.75,32.83-2.69,3.54-5.29,7.17-7.77,10.89-6.11,9.12-11.59,18.75-16.36,28.8-5.98,12.6-10.86,25.88-14.49,39.7-3.38,12.81-5.7,26.08-6.84,39.7-.55,6.53-.83,13.16-.83,19.85s.28,13.32,.83,19.85c1.14,13.62,3.46,26.89,6.84,39.7,3.63,13.82,8.52,27.1,14.49,39.7,4.77,10.05,10.25,19.68,16.36,28.8,2.48,3.72,5.08,7.35,7.77,10.89,9.15,12.03,19.46,23.03,30.75,32.83,2.72,2.37,5.5,4.66,8.34,6.87,9.48,7.44,19.58,14.05,30.19,19.75v-45.95c-5.92-4.13-11.59-8.64-16.97-13.5-7.81-7.04-15.03-14.8-21.55-23.18-4.1-5.26-7.93-10.78-11.46-16.51-7.57-12.3-13.78-25.61-18.38-39.7-4.15-12.66-7.01-25.95-8.42-39.7h-.27v-2.83c.08,.95,.17,1.89,.27,2.83h76.78v-39.7h-76.78c-.1,.94-.19,1.88-.27,2.83v-2.83h.27c1.41-13.75,4.27-27.04,8.42-39.7,4.61-14.09,10.81-27.41,18.38-39.7,3.53-5.74,7.36-11.25,11.46-16.51,6.52-8.38,13.74-16.14,21.55-23.18,5.38-4.86,11.05-9.37,16.97-13.5v-45.95c-10.61,5.7-20.7,12.31-30.19,19.75-2.84,2.22-5.62,4.51-8.34,6.87Z"/>
  <path class="cls-1" d="M323.75,87.49c-6.34-.6-12.77-.9-19.26-.9s-12.92,.31-19.26,.9c-7.61,.72-15.11,1.87-22.48,3.42-5.43,1.14-10.78,2.49-16.04,4.05v234.15h77.04v158.8h-38.52v-119.1h-38.52v154.75c5.26,1.56,10.61,2.91,16.04,4.05,7.36,1.55,14.86,2.7,22.48,3.42,6.34,.6,12.77,.9,19.26,.9s12.92-.31,19.26-.9c7.62-.72,15.12-1.87,22.48-3.42,5.42-1.14,10.78-2.49,16.04-4.05v-234.15h-77.05V130.61h38.52v119.1h38.52V94.96c-5.26-1.56-10.62-2.91-16.04-4.05-7.36-1.55-14.86-2.7-22.48-3.42Z"/>
  <polygon class="cls-1" points="63.65 387.84 54.02 391.32 59.16 406.4 48.75 410.17 44.52 397.77 34.8 401.29 39.02 413.69 28.61 417.46 23.47 402.37 13.84 405.86 23.02 432.78 72.83 414.76 63.65 387.84"/>
  <polygon class="cls-1" points="39.64 359.64 44.08 358.87 46.89 360.7 47.63 365.23 45.57 367.94 40.66 368.8 42.69 381.17 55.46 378.94 59.37 373.66 55.29 348.86 49.91 345.13 32.49 348.17 22.98 371.88 18.54 372.65 15.71 370.73 14.99 366.32 17.05 363.58 21.96 362.72 19.93 350.36 7.16 352.58 3.26 357.93 7.33 382.73 12.71 386.39 30.12 383.36 39.64 359.64"/>
  <polygon class="cls-1" points="47.93 332.77 52.75 328.36 53.49 299.33 48.9 294.67 23.93 294.01 23.46 312.57 33.73 312.85 33.88 306.76 40.62 306.94 43.03 309.39 42.81 317.76 40.28 320.01 12.88 319.28 10.46 316.83 10.68 308.52 13.21 306.21 17.64 306.32 17.96 293.84 5.56 293.51 .74 297.92 0 326.95 4.59 331.61 47.93 332.77"/>
  <path class="cls-1" d="M61.94,247.36l-5.65-3.8,4.04-12.46,6.73,.47,3.86-11.9-54.56-3.37-3.84,11.84,45.55,31.13,3.86-11.9Zm-14.82-8.94l-4.77-2.94-11.87-7.76,14,1.19,5.53,.61-2.88,8.89Z"/>
  <polygon class="cls-1" points="44.34 154.1 38.44 165.08 73.49 185.13 74.58 188.36 71.87 193.4 68.62 194.19 33.56 174.14 27.65 185.11 69.68 209.15 75.93 207.53 88.35 184.46 86.37 178.14 44.34 154.1"/>
  <polygon class="cls-1" points="68.16 136.53 101.41 163.92 109.01 154.12 75.76 126.73 81.83 118.89 73.86 112.33 54.12 137.81 62.09 144.37 68.16 136.53"/>
  <path class="cls-1" d="M124.32,135.32l20.13-18.42,.21-6.68-28.78-33.41-6.46-.57-20.13,18.42-.17,6.64,28.78,33.41,6.42,.61Zm-20.71-39.7l5.12-4.68,3.35,.35,18.2,21.12-.02,3.42-5.21,4.77-3.32-.37-18.2-21.12,.09-3.49Z"/>
  <polygon class="cls-1" points="166.07 99.8 153.44 77.18 161.1 85.59 172.22 96.15 180.54 91.22 177.27 75.99 174.06 64.94 186.7 87.56 197.24 81.3 170.92 34.16 160.37 40.42 168.86 80.17 139.74 52.66 129.19 58.92 155.52 106.06 166.07 99.8"/>
  <path class="cls-1" d="M220.17,14.49l-25.53,8.78-2.68,6.04,13.73,42.39,5.66,3.17,25.54-8.78,2.74-6.06-13.73-42.38-5.73-3.14Zm4.06,44.85l-6.61,2.27-2.92-1.68-8.68-26.8,1.41-3.17,6.49-2.23,2.95,1.68,8.68,26.8-1.32,3.14Z"/>
  <polygon class="cls-1" points="260.06 60.06 272.09 58.13 265.56 14.78 275.18 13.24 273.61 2.85 242.35 7.86 243.91 18.25 253.53 16.71 260.06 60.06"/>
  <polygon class="cls-1" points="304.64 55.27 303.3 .89 291.12 1.21 292.47 55.59 304.64 55.27"/>
  <polygon class="cls-1" points="341.37 57.21 361.7 4.94 349.61 3.45 341.5 24.42 337.68 36.15 336.68 23.83 333.53 1.48 321.48 0 329.34 55.74 341.37 57.21"/>
  <polygon class="cls-1" points="394.08 58.7 379.21 54.12 382.37 43.23 394.59 47 397.55 36.82 385.33 33.06 388.49 22.17 403.36 26.75 406.28 16.67 379.75 8.5 364.62 60.6 391.15 68.77 394.08 58.7"/>
  <path class="cls-1" d="M446.21,74.22l5.64,3.74-4.56,19.04,10.18,6.76,4.61-19,6.27-1.65,13.71-21.94-1.15-6.53-26.12-17.33-28.57,45.73,10.24,6.79,9.75-15.6Zm13.3-21.29l7.45,4.94,.6,3.43-5.1,8.16-3.28,.85-7.45-4.95,7.77-12.44Z"/>
  <polygon class="cls-1" points="486.53 129.71 493.49 122.02 482.15 111.1 489.67 102.8 498.99 111.77 506.03 104 496.7 95.03 504.23 86.72 515.57 97.63 522.53 89.95 502.29 70.47 466.29 110.23 486.53 129.71"/>
  <polygon class="cls-1" points="520.48 143.22 516.89 146.02 513.58 145.75 510.88 142.08 511.49 138.7 515.46 135.59 508.1 125.6 497.78 133.68 496.69 140.22 511.46 160.25 517.91 160.98 531.97 149.97 529.74 124.41 533.33 121.61 536.7 121.96 539.32 125.52 538.73 128.93 534.76 132.04 542.12 142.03 552.44 133.96 553.49 127.36 538.72 107.33 532.32 106.65 518.25 117.66 520.48 143.22"/>
  <polygon class="cls-1" points="524.21 180.51 529.78 191.66 567.63 171.58 572.08 180.5 581.15 175.68 566.66 146.69 557.59 151.5 562.05 160.42 524.21 180.51"/>
  <polygon class="cls-1" points="542.48 221.47 545.99 233.49 565.47 227.45 600.43 231.17 596.93 219.19 585.7 217.97 575.93 217.68 583.92 211.88 592.64 204.51 589.13 192.49 561.96 215.43 542.48 221.47"/>
  <polygon class="cls-1" points="555.09 282.33 565.23 281.09 563.68 267.65 605.97 262.5 604.54 250.04 552.11 256.42 555.09 282.33"/>
  <rect class="cls-1" x="575.98" y="274.67" width="12.55" height="52.78" transform="translate(275.42 880.29) rotate(-89.43)"/>
  <polygon class="cls-1" points="554.42 332 581.54 336.42 552.82 342.5 550.93 354.83 603.07 363.31 604.95 350.98 577.9 346.58 606.56 340.49 608.45 328.09 556.32 319.61 554.42 332"/>
  <polygon class="cls-1" points="553.62 367.68 547.71 370.31 538.18 397.63 541.13 403.54 564.64 412.24 570.73 394.76 561.06 391.18 559.06 396.92 552.72 394.57 551.18 391.47 553.92 383.58 557.01 382.27 582.82 391.81 584.36 394.92 581.64 402.74 578.53 404.12 574.36 402.58 570.26 414.32 581.94 418.64 587.85 416.01 597.38 388.69 594.44 382.79 553.62 367.68"/>
  <polygon class="cls-1" points="119.6 525.74 124.09 520.63 122.37 516.27 117.51 511.74 113.18 510.47 100.89 524.47 102.55 528.77 107.41 533.3 111.8 534.63 116.31 529.49 111.79 525.29 107.53 530.14 105.65 528.4 117.46 514.95 119.33 516.7 115.08 521.54 119.6 525.74"/>
  <polygon class="cls-1" points="139.48 530.91 127.47 547.33 125.45 545.77 137.46 529.35 132.58 525.59 120.35 542.31 122.38 546.43 127.64 550.48 132.08 551.35 144.31 534.63 139.48 530.91"/>
  <polygon class="cls-1" points="155.48 542.61 150.99 542.18 148.32 546.6 151.44 558.22 148.85 562.51 146.69 561.15 149.29 556.86 144.09 553.59 141.31 558.19 143.69 562.1 149.28 565.62 153.8 566.07 156.47 561.65 153.4 550.06 156 545.77 158.15 547.13 155.56 551.42 160.7 554.66 163.49 550.05 161.08 546.13 155.48 542.61"/>
  <polygon class="cls-1" points="170.89 552.31 169.82 554.47 174.62 556.92 165.54 575.22 171 578 180.07 559.7 184.87 562.14 185.94 559.99 170.89 552.31"/>
  <path class="cls-1" d="M197.25,565.16l-4.5,.41-6.84,17.52,3.02,3.39,6.12,2.42,4.53-.41,6.84-17.52-3.05-3.4-6.12-2.42Zm-3.16,20.77l-2.36-.93,6.57-16.83,2.36,.93-6.57,16.83Z"/>
  <polygon class="cls-1" points="226.4 585.55 221.89 593.64 222.28 584.43 222.24 574.34 215.73 572.56 209.59 594.66 215.48 596.26 219.01 583.53 218.09 596.98 223.49 598.45 229.67 586.44 226.14 599.17 231.99 600.77 238.13 578.68 231.62 576.9 226.4 585.55"/>
  <polygon class="cls-1" points="275.57 605.22 273.05 605.04 274.89 584.57 268.82 584.13 266.94 604.97 270.78 607.3 277.32 607.77 281.55 606.03 283.42 585.18 277.41 584.75 275.57 605.22"/>
  <path class="cls-1" d="M292.92,585.73l-.06,22.97,6.09-.12,.02-7.31,4.5-.09,4.06-2.15,.03-11.55-4.05-1.97-10.58,.22Zm8.58,13.06l-2.53,.05,.03-10.81,2.53-.05-.03,10.81Z"/>
  <polygon class="cls-1" points="325.65 584.13 326.52 594.36 324 594.64 323.14 584.42 317.09 585.1 319.02 607.98 325.07 607.3 324.21 597.05 326.72 596.77 327.59 607.02 333.58 606.34 331.64 583.46 325.65 584.13"/>
  <path class="cls-1" d="M351.44,580.1l-6.43,1.33-3.6,2.84,3.23,18.58,4.3,1.2,6.43-1.33,3.63-2.84-3.23-18.58-4.33-1.19Zm-.89,21.15l-3.1-17.85,2.48-.51,3.1,17.85-2.48,.51Z"/>
  <polygon class="cls-1" points="375.77 595.25 370.61 575.4 364.76 577.14 370.53 599.33 381.52 596.06 380.91 593.72 375.77 595.25"/>
  <polygon class="cls-1" points="393.02 575.9 391.35 571.14 393.72 570.21 395.38 574.97 401.02 572.76 399.22 567.65 394.76 567.21 388.63 569.62 385.54 573.03 387.26 577.92 398.03 582.51 399.7 587.26 397.33 588.19 395.67 583.44 389.98 585.67 391.77 590.78 396.21 591.22 402.34 588.82 405.45 585.4 403.74 580.51 393.02 575.9"/>
  <polygon class="cls-1" points="421.61 557.73 420.62 555.53 405.49 563.02 406.47 565.22 411.3 562.83 419.67 581.47 425.15 578.76 416.78 560.11 421.61 557.73"/>
  <polygon class="cls-1" points="443.16 566.31 439.38 559.47 443.69 556.86 442.52 554.76 438.21 557.37 434.44 550.56 440 547.2 438.83 545.09 428.03 551.64 439.07 571.59 449.88 565.05 448.71 562.94 443.16 566.31"/>
  <path class="cls-1" d="M465.23,542.89l-6.12-9.17-4.45,.72-8.66,6.27,12.63,18.92,4.98-3.61-4.26-6.38,.89-.64,6.57,4.71,5.03-3.64-7.57-5.41,.96-1.77Zm-7.21,4.76l-5.7-8.55,2.07-1.5,5.7,8.55-2.07,1.5Z"/>
  <polygon class="cls-1" points="475.85 517.48 471.21 521.46 472.94 525 475.52 529.29 471.92 525.88 468.95 523.4 464.28 527.42 476.3 535.17 481.91 542.2 486.54 538.22 480.93 531.19 475.85 517.48"/>
  <ellipse class="cls-1" cx="69.23" cy="464.78" rx="15.41" ry="15.88"/>
  <ellipse class="cls-1" cx="528.32" cy="464.78" rx="15.41" ry="15.88"/>
</svg>